<svg width="733" height="735" viewBox="0 0 733 735" fill="none" xmlns="http://www.w3.org/2000/svg">
<mask id="mask0_1539_6730" style="mask-type:alpha" maskUnits="userSpaceOnUse" x="0" y="0" width="733" height="735">
<rect width="733" height="735" fill="#D9D9D9"/>
</mask>
<g mask="url(#mask0_1539_6730)">
<path fill-rule="evenodd" clip-rule="evenodd" d="M733 734.998C1137.82 734.998 1466 406.823 1466 1.99805C1466 -402.827 1137.82 -731.002 733 -731.002C328.175 -731.002 0.00012207 -402.827 0.00012207 1.99805C0.00012207 406.823 328.175 734.998 733 734.998ZM733.001 351.479C926.013 351.479 1082.48 195.011 1082.48 1.99854C1082.48 -191.014 926.013 -347.482 733.001 -347.482C539.988 -347.482 383.52 -191.014 383.52 1.99854C383.52 195.011 539.988 351.479 733.001 351.479Z" fill="#F6F9FF"/>
</g>
</svg>
