<svg width="104" height="104" viewBox="0 0 104 104" fill="none" xmlns="http://www.w3.org/2000/svg">
<path d="M48.7499 24.1084H43.1166C29.0332 24.1084 23.3999 29.7417 23.3999 43.8251V60.7251C23.3999 74.8084 29.0332 80.4417 43.1166 80.4417H60.0166C74.0999 80.4417 79.7332 74.8084 79.7332 60.7251V55.0917" stroke="#282C34" stroke-width="3" stroke-linecap="round" stroke-linejoin="round"/>
<path d="M62.9455 26.981L40.7502 49.1764C39.9052 50.0214 39.0602 51.6832 38.8912 52.8944L37.68 61.3725C37.2294 64.4427 39.3982 66.5834 42.4684 66.1609L50.9465 64.9497C52.1295 64.7807 53.7914 63.9357 54.6645 63.0907L76.8599 40.8954C80.6905 37.0647 82.4932 32.6144 76.8599 26.981C71.2265 21.3477 66.7762 23.1504 62.9455 26.981Z" stroke="#3276FF" stroke-width="3" stroke-miterlimit="10" stroke-linecap="round" stroke-linejoin="round"/>
<path d="M59.7628 30.1631C61.65 36.8949 66.9172 42.1621 73.6772 44.0774" stroke="#3276FF" stroke-width="3" stroke-miterlimit="10" stroke-linecap="round" stroke-linejoin="round"/>
</svg>
