<svg width="104" height="104" viewBox="0 0 104 104" fill="none" xmlns="http://www.w3.org/2000/svg">
<path d="M66.0463 35.4014C71.6796 39.3165 75.5666 45.5414 76.3553 52.7239" stroke="#3276FF" stroke-width="3" stroke-linecap="round" stroke-linejoin="round"/>
<path d="M28.1058 52.8645C28.8382 45.7102 32.6688 39.4853 38.2458 35.542" stroke="#3276FF" stroke-width="3" stroke-linecap="round" stroke-linejoin="round"/>
<path d="M41.344 77.0029C44.6113 78.6648 48.3293 79.5943 52.2445 79.5943C56.0188 79.5943 59.5678 78.7493 62.7507 77.2001" stroke="#3276FF" stroke-width="3" stroke-linecap="round" stroke-linejoin="round"/>
<path d="M52.2448 39.7105C56.5693 39.7105 60.0751 36.2047 60.0751 31.8801C60.0751 27.5556 56.5693 24.0498 52.2448 24.0498C47.9202 24.0498 44.4144 27.5556 44.4144 31.8801C44.4144 36.2047 47.9202 39.7105 52.2448 39.7105Z" stroke="#292D32" stroke-width="3" stroke-linecap="round" stroke-linejoin="round"/>
<path d="M31.8803 74.1304C36.2049 74.1304 39.7107 70.6246 39.7107 66.3001C39.7107 61.9755 36.2049 58.4697 31.8803 58.4697C27.5557 58.4697 24.05 61.9755 24.05 66.3001C24.05 70.6246 27.5557 74.1304 31.8803 74.1304Z" stroke="#292D32" stroke-width="3" stroke-linecap="round" stroke-linejoin="round"/>
<path d="M72.2709 74.1304C76.5955 74.1304 80.1012 70.6246 80.1012 66.3001C80.1012 61.9755 76.5955 58.4697 72.2709 58.4697C67.9463 58.4697 64.4406 61.9755 64.4406 66.3001C64.4406 70.6246 67.9463 74.1304 72.2709 74.1304Z" stroke="#292D32" stroke-width="3" stroke-linecap="round" stroke-linejoin="round"/>
</svg>
