<svg width="71" height="67" viewBox="0 0 71 67" fill="none" xmlns="http://www.w3.org/2000/svg">
<path d="M28.6665 50.0667H16.0332C4.79988 50.0667 1.99988 47.2667 1.99988 36.0333V16.0333C1.99988 4.8 4.79988 2 16.0332 2H51.1332C62.3665 2 65.1665 4.8 65.1665 16.0333" stroke="#292D32" stroke-width="3" stroke-linecap="round" stroke-linejoin="round"/>
<path d="M28.6665 65.1336V50.0669" stroke="#292D32" stroke-width="3" stroke-linecap="round" stroke-linejoin="round"/>
<path d="M1.99988 36.7334H28.6665" stroke="#292D32" stroke-width="3" stroke-linecap="round" stroke-linejoin="round"/>
<path d="M17.7999 65.1333H28.6666" stroke="#292D32" stroke-width="3" stroke-linecap="round" stroke-linejoin="round"/>
<path d="M68.6665 36.2334V55.2667C68.6665 63.1667 66.6999 65.1334 58.7999 65.1334H46.9665C39.0665 65.1334 37.0999 63.1667 37.0999 55.2667V36.2334C37.0999 28.3334 39.0665 26.3667 46.9665 26.3667H58.7999C66.6999 26.3667 68.6665 28.3334 68.6665 36.2334Z" stroke="#3276FF" stroke-width="3" stroke-linecap="round" stroke-linejoin="round"/>
<path d="M52.8149 54.4001H52.8448" stroke="#3276FF" stroke-width="5" stroke-linecap="round" stroke-linejoin="round"/>
</svg>
