<svg width="104" height="104" viewBox="0 0 104 104" fill="none" xmlns="http://www.w3.org/2000/svg">
<path d="M43.489 47.8765V62.3541C43.489 64.6075 45.9677 65.9313 47.8548 64.7201L50.5025 62.9738C51.4602 62.3541 52.6713 62.3541 53.6008 62.9738L56.1077 64.6638C57.9667 65.9031 60.4735 64.5793 60.4735 62.326V47.8765H43.489Z" stroke="#3276FF" stroke-width="3" stroke-miterlimit="10" stroke-linecap="round" stroke-linejoin="round"/>
<path d="M51.0937 33.7931H35.5457C34.588 32.7509 34.6162 31.1454 35.6302 30.1314L39.6299 26.1317C40.672 25.0896 42.3902 25.0896 43.4324 26.1317L51.0937 33.7931Z" stroke="#292D32" stroke-width="3" stroke-miterlimit="10" stroke-linecap="round" stroke-linejoin="round"/>
<path d="M68.6423 33.7931H53.0943L60.7556 26.1317C61.7978 25.0896 63.516 25.0896 64.5581 26.1317L68.5578 30.1314C69.5718 31.1454 69.6 32.7509 68.6423 33.7931Z" stroke="#292D32" stroke-width="3" stroke-miterlimit="10" stroke-linecap="round" stroke-linejoin="round"/>
<path d="M74.75 48.1001H29.25V68.4668C29.25 76.1043 32.0937 78.6501 40.625 78.6501H63.375C71.9063 78.6501 74.75 76.1043 74.75 68.4668V48.1001Z" stroke="#292D32" stroke-width="3" stroke-miterlimit="10" stroke-linecap="round" stroke-linejoin="round"/>
<path d="M78.8666 39.4268V42.2435C78.8666 45.3418 77.3738 47.8768 73.2333 47.8768H30.9833C26.6738 47.8768 25.35 45.3418 25.35 42.2435V39.4268C25.35 36.3285 26.6738 33.7935 30.9833 33.7935H73.2333C77.3738 33.7935 78.8666 36.3285 78.8666 39.4268Z" stroke="#292D32" stroke-width="3" stroke-miterlimit="10" stroke-linecap="round" stroke-linejoin="round"/>
</svg>
