<svg width="104" height="104" viewBox="0 0 104 104" fill="none" xmlns="http://www.w3.org/2000/svg">
<path fill-rule="evenodd" clip-rule="evenodd" d="M70.3573 72.75C71.9065 70.384 72.4699 69.2011 73.6529 66.5534C64.9775 63.2579 63.5692 50.8928 72.16 46.1608C69.5405 42.8653 65.8507 40.978 62.3862 40.978C59.8794 40.978 58.1612 41.6259 56.612 42.2174C55.3164 42.7244 54.1052 43.175 52.6687 43.175C51.0914 43.175 49.7112 42.6681 48.2465 42.1611C46.641 41.5977 44.9792 40.978 42.8948 40.978C38.9797 40.978 34.8392 43.3722 32.1915 47.4282C28.5017 53.1742 29.1214 63.9621 35.1209 73.1726C37.2615 76.4681 40.1345 80.1579 43.8807 80.1861C45.4299 80.2142 46.472 79.7354 47.5987 79.2284C48.8944 78.6651 50.2745 78.0173 52.6969 78.0173C55.1192 77.9891 56.4994 78.6369 57.7669 79.2284C58.8654 79.7354 59.8794 80.1861 61.4004 80.1861C65.1747 80.1579 68.2167 76.0455 70.3573 72.75Z" stroke="#292D32" stroke-width="3" stroke-miterlimit="10" stroke-linecap="round" stroke-linejoin="round"/>
<path fill-rule="evenodd" clip-rule="evenodd" d="M63.0896 24.0498C63.5403 27.1481 62.2728 30.2183 60.611 32.3589C58.8365 34.6686 55.7381 36.4713 52.7525 36.3586C52.2173 33.373 53.5975 30.3028 55.2875 28.2466C57.1746 25.9933 60.3575 24.247 63.0896 24.0498Z" stroke="#3276FF" stroke-width="3" stroke-miterlimit="10" stroke-linecap="round" stroke-linejoin="round"/>
</svg>
