<svg width="104" height="104" viewBox="0 0 104 104" fill="none" xmlns="http://www.w3.org/2000/svg">
<path d="M39.4333 24.0498V32.4998" stroke="#292D32" stroke-width="3" stroke-miterlimit="10" stroke-linecap="round" stroke-linejoin="round"/>
<path d="M61.9667 24.0498V32.4998" stroke="#292D32" stroke-width="3" stroke-miterlimit="10" stroke-linecap="round" stroke-linejoin="round"/>
<path d="M68.1633 78.6927C73.1413 78.6927 77.1767 74.6573 77.1767 69.6794C77.1767 64.7015 73.1413 60.666 68.1633 60.666C63.1854 60.666 59.15 64.7015 59.15 69.6794C59.15 74.6573 63.1854 78.6927 68.1633 78.6927Z" stroke="#3276FF" stroke-width="3" stroke-linecap="round" stroke-linejoin="round"/>
<path d="M78.8667 80.3831L76.05 77.5664" stroke="#3276FF" stroke-width="3" stroke-linecap="round" stroke-linejoin="round"/>
<path d="M26.7583 44.0205H74.6416" stroke="#292D32" stroke-width="3" stroke-miterlimit="10" stroke-linecap="round" stroke-linejoin="round"/>
<path d="M54.5588 80.3827H39.4333C29.575 80.3827 25.35 74.7494 25.35 66.2994V42.3577C25.35 33.9077 29.575 28.2744 39.4333 28.2744H61.9666C71.825 28.2744 76.05 33.9077 76.05 42.3577V55.0327" stroke="#292D32" stroke-width="3" stroke-miterlimit="10" stroke-linecap="round" stroke-linejoin="round"/>
<path d="M50.6873 57.005H50.7126" stroke="#3276FF" stroke-width="5" stroke-linecap="round" stroke-linejoin="round"/>
<path d="M40.2622 57.005H40.2875" stroke="#3276FF" stroke-width="5" stroke-linecap="round" stroke-linejoin="round"/>
<path d="M40.2626 65.4551H40.2879" stroke="#3276FF" stroke-width="5" stroke-linecap="round" stroke-linejoin="round"/>
</svg>
