<svg width="751" height="231" viewBox="0 0 751 231" fill="none" xmlns="http://www.w3.org/2000/svg">
<path d="M520.611 115.403C520.611 52.2199 571.831 1.00005 635.014 1.00005C698.197 1.00005 749.417 52.2199 749.417 115.403C749.417 178.586 698.197 229.806 635.014 229.806C571.831 229.806 520.611 178.586 520.611 115.403ZM635.566 66.3642C608.178 66.3642 585.975 88.5666 585.975 115.955C585.975 143.343 608.178 165.545 635.566 165.545C662.954 165.545 685.157 143.343 685.157 115.955C685.157 88.5666 662.954 66.3642 635.566 66.3642Z" stroke="#ECF0F6" stroke-width="2"/>
<path fill-rule="evenodd" clip-rule="evenodd" d="M375.208 4.57764e-05C438.944 4.57764e-05 490.611 51.6676 490.611 115.403C490.611 179.138 438.944 230.806 375.208 230.806C311.473 230.806 259.806 179.138 259.806 115.403C259.806 51.6676 311.473 4.57764e-05 375.208 4.57764e-05ZM374.656 67.3642C401.492 67.3642 423.247 89.1189 423.247 115.955C423.247 142.791 401.492 164.545 374.656 164.545C347.82 164.545 326.066 142.791 326.066 115.955C326.066 89.1189 347.82 67.3642 374.656 67.3642Z" fill="#F6F9FF"/>
<path fill-rule="evenodd" clip-rule="evenodd" d="M115.403 4.57764e-05C179.138 4.57764e-05 230.806 51.6676 230.806 115.403C230.806 179.138 179.138 230.806 115.403 230.806C51.6676 230.806 0 179.138 0 115.403C0 51.6676 51.6676 4.57764e-05 115.403 4.57764e-05ZM114.851 67.3642C141.686 67.3642 163.441 89.1189 163.441 115.955C163.441 142.791 141.686 164.545 114.851 164.545C88.0147 164.545 66.26 142.791 66.26 115.955C66.26 89.1189 88.0147 67.3642 114.851 67.3642Z" fill="#3276FF"/>
</svg>
