<svg width="60" height="60" viewBox="0 0 60 60" fill="none" xmlns="http://www.w3.org/2000/svg">
<path d="M41.4833 18.9497H18.95V41.483H41.4833V18.9497Z" stroke="#3276FF" stroke-width="3" stroke-linecap="round" stroke-linejoin="round"/>
<path d="M10.5 58.3834C15.1475 58.3834 18.95 54.5809 18.95 49.9334V41.4834H10.5C5.85249 41.4834 2.04999 45.2859 2.04999 49.9334C2.04999 54.5809 5.85249 58.3834 10.5 58.3834Z" stroke="#3276FF" stroke-width="3" stroke-linecap="round" stroke-linejoin="round"/>
<path d="M10.5 18.9498H18.95V10.4998C18.95 5.8523 15.1475 2.0498 10.5 2.0498C5.85249 2.0498 2.04999 5.8523 2.04999 10.4998C2.04999 15.1473 5.85249 18.9498 10.5 18.9498Z" stroke="#282C34" stroke-width="3" stroke-linecap="round" stroke-linejoin="round"/>
<path d="M41.4835 18.9498H49.9335C54.581 18.9498 58.3835 15.1473 58.3835 10.4998C58.3835 5.8523 54.581 2.0498 49.9335 2.0498C45.286 2.0498 41.4835 5.8523 41.4835 10.4998V18.9498Z" stroke="#3276FF" stroke-width="3" stroke-linecap="round" stroke-linejoin="round"/>
<path d="M49.9335 58.3834C54.581 58.3834 58.3835 54.5809 58.3835 49.9334C58.3835 45.2859 54.581 41.4834 49.9335 41.4834H41.4835V49.9334C41.4835 54.5809 45.286 58.3834 49.9335 58.3834Z" stroke="#282C34" stroke-width="3" stroke-linecap="round" stroke-linejoin="round"/>
</svg>
