<svg width="80" height="80" viewBox="0 0 80 80" fill="none" xmlns="http://www.w3.org/2000/svg">
<path d="M32.9611 53.8983H31.964C23.988 53.8983 19.9999 51.9043 19.9999 41.9342V31.9641C19.9999 23.988 23.988 20 31.964 20H47.9162C55.8923 20 59.8803 23.988 59.8803 31.9641V41.9342C59.8803 49.9103 55.8923 53.8983 47.9162 53.8983H46.9192C46.301 53.8983 45.7028 54.1974 45.324 54.6959L42.3329 58.6839C41.0169 60.4387 38.8633 60.4387 37.5473 58.6839L34.5563 54.6959C34.2372 54.2572 33.4994 53.8983 32.9611 53.8983Z" stroke="#292D32" stroke-width="2" stroke-miterlimit="10" stroke-linecap="round" stroke-linejoin="round"/>
<path d="M47.9092 37.9462H47.9271" stroke="#3276FF" stroke-width="4" stroke-linecap="round" stroke-linejoin="round"/>
<path d="M39.9311 37.9462H39.949" stroke="#3276FF" stroke-width="4" stroke-linecap="round" stroke-linejoin="round"/>
<path d="M31.953 37.9462H31.9709" stroke="#3276FF" stroke-width="4" stroke-linecap="round" stroke-linejoin="round"/>
</svg>
