<svg width="71" height="71" viewBox="0 0 71 71" fill="none" xmlns="http://www.w3.org/2000/svg">
<path d="M25.3333 5.3335C18.8333 24.8002 18.8333 45.8668 25.3333 65.3335" stroke="#3276FF" stroke-width="3" stroke-linecap="round" stroke-linejoin="round"/>
<path d="M45.3333 5.3335C51.8333 24.8002 51.8333 45.8668 45.3333 65.3335" stroke="#3276FF" stroke-width="3" stroke-linecap="round" stroke-linejoin="round"/>
<path d="M5.33325 45.3335C24.7999 51.8335 45.8666 51.8335 65.3333 45.3335" stroke="#3276FF" stroke-width="3" stroke-linecap="round" stroke-linejoin="round"/>
<path d="M5.33325 25.3335C24.7999 18.8335 45.8666 18.8335 65.3333 25.3335" stroke="#3276FF" stroke-width="3" stroke-linecap="round" stroke-linejoin="round"/>
<path d="M35.3332 68.6667C53.7427 68.6667 68.6665 53.7428 68.6665 35.3333C68.6665 16.9238 53.7427 2 35.3332 2C16.9237 2 1.99988 16.9238 1.99988 35.3333C1.99988 53.7428 16.9237 68.6667 35.3332 68.6667Z" stroke="#292D32" stroke-width="3" stroke-linecap="round" stroke-linejoin="round"/>
</svg>
