<svg width="104" height="104" viewBox="0 0 104 104" fill="none" xmlns="http://www.w3.org/2000/svg">
<path d="M43.568 63.6304V69.3483C43.568 74.193 39.0613 78.1081 33.5125 78.1081C27.9637 78.1081 23.4288 74.193 23.4288 69.3483V63.6304C23.4288 68.475 27.9355 71.9114 33.5125 71.9114C39.0613 71.9114 43.568 68.4469 43.568 63.6304Z" stroke="#3276FF" stroke-width="3" stroke-linecap="round" stroke-linejoin="round"/>
<path d="M43.5673 56.5348C43.5673 57.9432 43.1729 59.2388 42.4969 60.3654C40.8351 63.0976 37.4269 64.8158 33.4836 64.8158C29.5402 64.8158 26.132 63.0694 24.4702 60.3654C23.7942 59.2388 23.4 57.9432 23.4 56.5348C23.4 54.1125 24.5266 51.9436 26.3293 50.3663C28.1601 48.7608 30.6669 47.8032 33.4554 47.8032C36.2439 47.8032 38.7508 48.789 40.5816 50.3663C42.4406 51.9155 43.5673 54.1125 43.5673 56.5348Z" stroke="#3276FF" stroke-width="3" stroke-linecap="round" stroke-linejoin="round"/>
<path d="M43.622 55.9497V63.4653C43.622 68.166 39.113 71.5002 33.5612 71.5002C28.0094 71.5002 23.472 68.1386 23.472 63.4653V55.9497C23.472 51.249 27.9812 47.4502 33.5612 47.4502C36.3511 47.4502 38.8594 48.4067 40.6912 49.9371C42.4948 51.4676 43.622 53.5993 43.622 55.9497Z" stroke="#3276FF" stroke-width="3" stroke-linecap="round" stroke-linejoin="round"/>
<path d="M80.456 47.0404V52.8429C80.456 54.392 79.2167 55.6594 77.6393 55.7157H72.1186C69.0766 55.7157 66.2882 53.4906 66.0347 50.4486C65.8657 48.6741 66.5416 47.0122 67.7246 45.8574C68.7668 44.7871 70.2033 44.1675 71.7806 44.1675H77.6393C79.2167 44.2238 80.456 45.4912 80.456 47.0404Z" stroke="#292D32" stroke-width="3" stroke-linecap="round" stroke-linejoin="round"/>
<path d="M24.1221 45.7167V40.0833C24.1221 32.422 28.7414 27.0703 35.9239 26.169C36.6562 26.0563 37.4167 26 38.2054 26H63.5554C64.2877 26 64.9919 26.0281 65.6679 26.1408C72.9349 26.9858 77.6387 32.3657 77.6387 40.0833V44.1675H71.78C70.2027 44.1675 68.7662 44.7871 67.724 45.8575C66.541 47.0123 65.8651 48.6741 66.0341 50.4486C66.2876 53.4906 69.076 55.7158 72.118 55.7158H77.6387V59.8C77.6387 68.25 72.0054 73.8833 63.5554 73.8833H48.1721" stroke="#292D32" stroke-width="3" stroke-linecap="round" stroke-linejoin="round"/>
</svg>
