<svg width="694" height="695" viewBox="0 0 694 695" fill="none" xmlns="http://www.w3.org/2000/svg">
<path d="M382.61 312.659L429.212 266.814C473.19 311.545 472.957 383.457 428.514 427.9C384.071 472.343 312.159 472.576 267.428 428.598L312.492 382.777C331.909 401.434 362.776 401.199 381.904 382.071C401.032 362.943 401.267 332.076 382.61 312.659Z" stroke="#ECF0F6" stroke-width="2"/>
<path fill-rule="evenodd" clip-rule="evenodd" d="M449.052 82.4321C403.984 127.5 403.984 200.569 449.052 245.636C494.12 290.704 567.189 290.704 612.256 245.636C657.324 200.569 657.324 127.5 612.256 82.4321C567.189 37.3645 494.12 37.3645 449.052 82.4321ZM497.076 129.675C478.1 148.651 478.1 179.417 497.076 198.393C516.052 217.369 546.818 217.369 565.794 198.393C584.769 179.417 584.769 148.651 565.794 129.675C546.818 110.699 516.052 110.699 497.076 129.675Z" fill="#FAFBFF"/>
<path fill-rule="evenodd" clip-rule="evenodd" d="M81.926 449.558C126.994 404.49 200.063 404.49 245.13 449.558C290.198 494.626 290.198 567.695 245.13 612.762C200.063 657.83 126.994 657.83 81.926 612.762C36.8584 567.695 36.8584 494.626 81.926 449.558ZM129.169 497.582C148.145 478.606 178.911 478.606 197.887 497.582C216.863 516.558 216.863 547.324 197.887 566.3C178.911 585.275 148.145 585.275 129.169 566.3C110.193 547.324 110.193 516.558 129.169 497.582Z" fill="#F6F9FF"/>
</svg>
