<svg width="63" height="60" viewBox="0 0 63 60" fill="none" xmlns="http://www.w3.org/2000/svg">
<path d="M1.74994 44.4688H29.9166" stroke="#3276FF" stroke-width="3" stroke-miterlimit="10" stroke-linecap="round" stroke-linejoin="round"/>
<path d="M8.00286 34.4414H23.6637C28.6774 34.4414 29.9166 35.6807 29.9166 40.6381V52.2146C29.9166 57.1719 28.6774 58.4112 23.6637 58.4112H8.00286C2.98919 58.4112 1.74994 57.1719 1.74994 52.2146V40.6381C1.74994 35.6807 2.98919 34.4414 8.00286 34.4414Z" stroke="#3276FF" stroke-width="3" stroke-linecap="round" stroke-linejoin="round"/>
<path d="M58.0832 38.6665C58.0832 49.567 49.2671 58.3832 38.3666 58.3832L41.324 53.454" stroke="#282C34" stroke-width="3" stroke-linecap="round" stroke-linejoin="round"/>
<path d="M1.74994 21.7665C1.74994 10.866 10.5661 2.0498 21.4666 2.0498L18.5091 6.97897" stroke="#282C34" stroke-width="3" stroke-linecap="round" stroke-linejoin="round"/>
<path d="M48.2249 27.3998C55.2251 27.3998 60.8999 21.725 60.8999 14.7248C60.8999 7.7246 55.2251 2.0498 48.2249 2.0498C41.2247 2.0498 35.5499 7.7246 35.5499 14.7248C35.5499 21.725 41.2247 27.3998 48.2249 27.3998Z" stroke="#3276FF" stroke-width="3" stroke-linecap="round" stroke-linejoin="round"/>
</svg>
