<svg width="104" height="104" viewBox="0 0 104 104" fill="none" xmlns="http://www.w3.org/2000/svg">
<path d="M43.7666 55.0332C41.9076 55.9627 40.3585 57.3429 39.2036 59.061C38.5558 60.0469 38.5558 61.2862 39.2036 62.272C40.3585 63.9902 41.9076 65.3704 43.7666 66.2999" stroke="#3276FF" stroke-width="3" stroke-linecap="round" stroke-linejoin="round"/>
<path d="M61.2579 55.0332C63.1169 55.9627 64.6661 57.3429 65.8209 59.061C66.4688 60.0469 66.4688 61.2862 65.8209 62.272C64.6661 63.9902 63.1169 65.3704 61.2579 66.2999" stroke="#3276FF" stroke-width="3" stroke-linecap="round" stroke-linejoin="round"/>
<path d="M43.7666 80.3831H60.6666C74.7499 80.3831 80.3833 74.7498 80.3833 60.6665V43.7665C80.3833 29.6831 74.7499 24.0498 60.6666 24.0498H43.7666C29.6833 24.0498 24.0499 29.6831 24.0499 43.7665V60.6665C24.0499 74.7498 29.6833 80.3831 43.7666 80.3831Z" stroke="#292D32" stroke-width="3" stroke-linecap="round" stroke-linejoin="round"/>
<path d="M24.6978 40.9784L78.8341 40.9502" stroke="#292D32" stroke-width="3" stroke-linecap="round" stroke-linejoin="round"/>
</svg>
