<svg width="104" height="104" viewBox="0 0 104 104" fill="none" xmlns="http://www.w3.org/2000/svg">
<path d="M72.0199 59.1504V37.5706C72.0199 34.4246 69.4459 31.8506 66.2999 31.8506H50.5699" stroke="#292D32" stroke-width="3" stroke-linecap="round" stroke-linejoin="round"/>
<path d="M57.7201 24.7002L49.14 31.8502L57.7201 39.0003" stroke="#292D32" stroke-width="3" stroke-linecap="round" stroke-linejoin="round"/>
<path d="M72.0201 77.3505C76.7587 77.3505 80.6001 73.5091 80.6001 68.7705C80.6001 64.0318 76.7587 60.1904 72.0201 60.1904C67.2815 60.1904 63.4401 64.0318 63.4401 68.7705C63.4401 73.5091 67.2815 77.3505 72.0201 77.3505Z" stroke="#3276FF" stroke-width="3" stroke-linecap="round" stroke-linejoin="round"/>
<path d="M31.98 44.8501V66.4302C31.98 69.5762 34.554 72.1502 37.7 72.1502H53.4301" stroke="#292D32" stroke-width="3" stroke-linecap="round" stroke-linejoin="round"/>
<path d="M46.28 79.3006L54.86 72.1505L46.28 65.0005" stroke="#292D32" stroke-width="3" stroke-linecap="round" stroke-linejoin="round"/>
<path d="M31.98 43.8105C36.7187 43.8105 40.5601 39.9691 40.5601 35.2304C40.5601 30.4918 36.7187 26.6504 31.98 26.6504C27.2414 26.6504 23.4 30.4918 23.4 35.2304C23.4 39.9691 27.2414 43.8105 31.98 43.8105Z" stroke="#3276FF" stroke-width="3" stroke-linecap="round" stroke-linejoin="round"/>
</svg>
